<svg width="18" height="16" viewBox="0 0 18 16" fill="none" xmlns="http://www.w3.org/2000/svg">
<mask id="mask0_2021_105" style="mask-type:luminance" maskUnits="userSpaceOnUse" x="0" y="0" width="18" height="16">
<path d="M0 0H17.3333V15.8125H0V0Z" fill="white"/>
</mask>
<g mask="url(#mask0_2021_105)">
<path d="M4.64584 14.6198C5.13542 14.9115 5.65626 15.1406 6.20313 15.3177C6.75 15.4896 7.3073 15.6042 7.87501 15.6562C8.44792 15.7083 9.01563 15.6979 9.58334 15.6302C10.151 15.5573 10.7083 15.4219 11.2448 15.2292C11.7865 15.0365 12.2969 14.7865 12.7813 14.4792C13.2656 14.1771 13.7083 13.8229 14.1146 13.4167C14.526 13.0156 14.8802 12.5729 15.1927 12.0885C15.5 11.6094 15.7552 11.099 15.9531 10.5625C16.151 10.0208 16.2865 9.46875 16.3646 8.90104C16.4427 8.33333 16.4531 7.76562 16.4063 7.1927C16.3594 6.62499 16.25 6.0677 16.0781 5.52083C15.9063 4.97395 15.6823 4.44791 15.3958 3.95312C15.1094 3.45833 14.776 2.99479 14.3906 2.57291C14.0052 2.15104 13.5729 1.77604 13.1094 1.4427C12.6406 1.11458 12.1406 0.838535 11.6094 0.619786C11.0833 0.401035 10.5365 0.239576 9.97396 0.140619C9.40626 0.0364524 8.83855 -5.59911e-06 8.27084 0.0260357C7.69792 0.0468691 7.13542 0.135412 6.57813 0.281244C6.02605 0.427079 5.4948 0.635411 4.98959 0.895827C4.47917 1.16145 4.00521 1.47916 3.56771 1.84374C3.12501 2.21353 2.73438 2.62499 2.38542 3.07812C2.03646 3.53124 1.73959 4.02083 1.4948 4.53645C1.25521 5.05729 1.07292 5.59375 0.947922 6.15624C0.822922 6.71354 0.760422 7.28124 0.760422 7.85416C0.760422 8.04687 0.76563 8.24479 0.781255 8.43749C1.82292 9.16145 2.67709 10.0573 3.34896 11.1302C4.02084 12.2083 4.45313 13.3698 4.64584 14.6198Z" fill="#1F48FF"/>
</g>
</svg>
