<svg width="18" height="16" viewBox="0 0 18 16" fill="none" xmlns="http://www.w3.org/2000/svg">
<mask id="mask0_2021_95" style="mask-type:luminance" maskUnits="userSpaceOnUse" x="0" y="0" width="18" height="16">
<path d="M0 0H17.3333V15.8125H0V0Z" fill="white"/>
</mask>
<g mask="url(#mask0_2021_95)">
<path d="M8.46354 15.6875C10.1979 15.6927 11.7604 15.1719 13.151 14.1302C13.5833 12.0677 14.6094 10.349 16.2188 8.98438C16.2708 8.60938 16.2969 8.23438 16.2969 7.85417C16.2969 7.33854 16.25 6.82813 16.1458 6.32292C16.0469 5.81771 15.901 5.32813 15.7031 4.85417C15.5052 4.38021 15.2656 3.92708 14.9792 3.5C14.6927 3.07292 14.3646 2.67708 14.0052 2.3125C13.6406 1.94792 13.2448 1.625 12.8177 1.33854C12.3854 1.05208 11.9375 0.807293 11.4583 0.614583C10.9844 0.416667 10.4948 0.265625 9.98958 0.166667C9.48438 0.067708 8.97396 0.015625 8.46354 0.015625C7.94792 0.015625 7.4375 0.067708 6.93229 0.166667C6.42708 0.265625 5.9375 0.416667 5.46354 0.614583C4.98438 0.807293 4.53646 1.05208 4.10938 1.33854C3.67708 1.625 3.28125 1.94792 2.92187 2.3125C2.55729 2.67708 2.22917 3.07292 1.94271 3.5C1.66146 3.92708 1.41667 4.38021 1.21875 4.85417C1.02604 5.32813 0.875 5.81771 0.776041 6.32292C0.677082 6.82813 0.625 7.33854 0.625 7.85417C0.625 8.36979 0.677082 8.875 0.776041 9.38021C0.875 9.88542 1.02604 10.375 1.21875 10.8542C1.41667 11.3281 1.66146 11.7812 1.94271 12.2083C2.22917 12.6354 2.55729 13.0312 2.92187 13.3958C3.28125 13.7604 3.67708 14.0833 4.10938 14.3698C4.53646 14.6562 4.98438 14.8958 5.46354 15.0938C5.9375 15.2917 6.42708 15.4375 6.93229 15.5417C7.4375 15.6406 7.94792 15.6875 8.46354 15.6875Z" fill="#1F48FF"/>
</g>
</svg>
