<svg width="58" height="94" viewBox="0 0 58 94" fill="none" xmlns="http://www.w3.org/2000/svg">
<mask id="mask0_2016_49" style="mask-type:luminance" maskUnits="userSpaceOnUse" x="0" y="0" width="58" height="94">
<path d="M0 0H57.3333V93.0312H0V0Z" fill="white"/>
</mask>
<g mask="url(#mask0_2016_49)">
<g filter="url(#filter0_d_2016_49)">
<mask id="mask1_2016_49" style="mask-type:luminance" maskUnits="userSpaceOnUse" x="-6" y="-10" width="71" height="115">
<path d="M64.9 -9.80209H-5.89999V104.198H64.9V-9.80209Z" fill="black" fill-opacity="0.55"/>
</mask>
<g mask="url(#mask1_2016_49)">
<mask id="mask2_2016_49" style="mask-type:luminance" maskUnits="userSpaceOnUse" x="0" y="-1" width="58" height="95">
<path d="M57.3333 -0.302094H0V93.0312H57.3333V-0.302094Z" fill="white"/>
</mask>
<g mask="url(#mask2_2016_49)">
<mask id="mask3_2016_49" style="mask-type:luminance" maskUnits="userSpaceOnUse" x="0" y="0" width="58" height="93">
<path d="M0 0H57.1771V92.5104H0V0Z" fill="white"/>
</mask>
<g mask="url(#mask3_2016_49)">
<mask id="mask4_2016_49" style="mask-type:luminance" maskUnits="userSpaceOnUse" x="0" y="0" width="58" height="93">
<path d="M14.0104 0H43.1615C46.8802 0 50.4427 1.47396 53.0729 4.10417C55.6979 6.72917 57.1771 10.2917 57.1771 14.0104V78.4531C57.1771 82.1667 55.6979 85.7344 53.0729 88.3594C50.4427 90.9896 46.8802 92.4635 43.1615 92.4635H14.0104C10.2969 92.4635 6.73438 90.9896 4.10417 88.3594C1.47396 85.7344 0 82.1667 0 78.4531V14.0104C0 10.2917 1.47396 6.72917 4.10417 4.10417C6.73438 1.47396 10.2969 0 14.0104 0Z" fill="white"/>
</mask>
<g mask="url(#mask4_2016_49)">
<mask id="mask5_2016_49" style="mask-type:luminance" maskUnits="userSpaceOnUse" x="0" y="-1" width="58" height="95">
<path d="M57.3333 -0.302094H0V93.0312H57.3333V-0.302094Z" fill="white"/>
</mask>
<g mask="url(#mask5_2016_49)">
<mask id="mask6_2016_49" style="mask-type:luminance" maskUnits="userSpaceOnUse" x="0" y="0" width="58" height="93">
<path d="M0 0H57.1771V92.5104H0V0Z" fill="white"/>
</mask>
<g mask="url(#mask6_2016_49)">
<mask id="mask7_2016_49" style="mask-type:luminance" maskUnits="userSpaceOnUse" x="0" y="0" width="58" height="93">
<path d="M14.0104 0H43.1615C46.8802 0 50.4427 1.47396 53.0729 4.10417C55.6979 6.72917 57.1771 10.2917 57.1771 14.0104V78.4531C57.1771 82.1667 55.6979 85.7344 53.0729 88.3594C50.4427 90.9896 46.8802 92.4635 43.1615 92.4635H14.0104C10.2969 92.4635 6.73438 90.9896 4.10417 88.3594C1.47396 85.7344 0 82.1667 0 78.4531V14.0104C0 10.2917 1.47396 6.72917 4.10417 4.10417C6.73438 1.47396 10.2969 0 14.0104 0Z" fill="white"/>
</mask>
<g mask="url(#mask7_2016_49)">
<path d="M0 0H57.1771V92.4635H0V0Z" fill="#8C52FF"/>
</g>
</g>
</g>
</g>
</g>
</g>
</g>
</g>
</g>
<defs>
<filter id="filter0_d_2016_49" x="-4" y="0" width="65.1771" height="100.464" filterUnits="userSpaceOnUse" color-interpolation-filters="sRGB">
<feFlood flood-opacity="0" result="BackgroundImageFix"/>
<feColorMatrix in="SourceAlpha" type="matrix" values="0 0 0 0 0 0 0 0 0 0 0 0 0 0 0 0 0 0 127 0" result="hardAlpha"/>
<feOffset dy="4"/>
<feGaussianBlur stdDeviation="2"/>
<feComposite in2="hardAlpha" operator="out"/>
<feColorMatrix type="matrix" values="0 0 0 0 0 0 0 0 0 0 0 0 0 0 0 0 0 0 0.25 0"/>
<feBlend mode="normal" in2="BackgroundImageFix" result="effect1_dropShadow_2016_49"/>
<feBlend mode="normal" in="SourceGraphic" in2="effect1_dropShadow_2016_49" result="shape"/>
</filter>
</defs>
</svg>
