<svg width="28" height="22" viewBox="0 0 28 22" fill="none" xmlns="http://www.w3.org/2000/svg">
<mask id="mask0_2021_116" style="mask-type:luminance" maskUnits="userSpaceOnUse" x="0" y="0" width="28" height="22">
<path d="M0 0H28V21.4219H0V0Z" fill="white"/>
</mask>
<g mask="url(#mask0_2021_116)">
<path d="M17.5885 0.78125H10.7917C10.1146 0.791666 9.44271 0.864584 8.77605 1.00521C8.11459 1.14583 7.46876 1.34896 6.84376 1.61458C6.22397 1.88021 5.63021 2.20313 5.06771 2.58333C4.50521 2.96354 3.98959 3.39583 3.51042 3.88021C3.03646 4.36458 2.60938 4.88542 2.23438 5.45312C1.85938 6.02083 1.54688 6.61458 1.28646 7.24479C1.03126 7.86979 0.838547 8.51562 0.703131 9.18229C0.572923 9.84896 0.510422 10.5208 0.510422 11.1979V19.0573C0.510422 19.0573 7.5573 21.5625 14.2344 21.5625C20.9115 21.5625 27.9635 19.0573 27.9635 19.0573V11.2031C27.9635 10.5208 27.8958 9.84375 27.7656 9.17188C27.6302 8.50521 27.4323 7.85417 27.1719 7.22396C26.9115 6.59375 26.5938 5.99479 26.2135 5.42708C25.8385 4.85938 25.4063 4.33333 24.9271 3.84896C24.4427 3.36458 23.9219 2.93229 23.3542 2.55208C22.7865 2.17188 22.1927 1.84896 21.5625 1.58854C20.9323 1.32292 20.2813 1.125 19.6146 0.989583C18.9427 0.854166 18.2708 0.786458 17.5885 0.78125Z" fill="#1F48FF"/>
</g>
</svg>
