<svg width="23" height="23" viewBox="0 0 23 23" fill="none" xmlns="http://www.w3.org/2000/svg">
<mask id="mask0_2021_100" style="mask-type:luminance" maskUnits="userSpaceOnUse" x="0" y="0" width="23" height="23">
<path d="M0 0H22.5521V22.6667H0V0Z" fill="white"/>
</mask>
<g mask="url(#mask0_2021_100)">
<path d="M21.901 7.60416C20.7969 6.78645 19.9219 5.77082 19.2708 4.55728C18.625 3.34895 18.2604 2.05728 18.1875 0.682281C17.8073 0.640615 17.4219 0.619781 17.0365 0.619781H10.4167C9.73438 0.619781 9.05729 0.68749 8.38542 0.817698C7.71354 0.953115 7.0625 1.15103 6.43229 1.41145C5.79687 1.67186 5.19792 1.99478 4.63021 2.37499C4.0625 2.7552 3.53646 3.18749 3.05208 3.67186C2.56771 4.15624 2.13542 4.68228 1.75521 5.24999C1.375 5.8177 1.05208 6.41666 0.791667 7.05207C0.531249 7.68228 0.333333 8.33332 0.197916 9.0052C0.067708 9.67707 0 10.3542 0 11.0364V18.8958C0 18.8958 6.10417 21.0625 12.3333 21.3646V19.1979C12.3385 18.5156 12.3958 17.8385 12.5156 17.1719C12.6302 16.5 12.8021 15.8437 13.0365 15.2031C13.2656 14.5677 13.5469 13.9479 13.8854 13.3594C14.224 12.7656 14.6094 12.2083 15.0417 11.6875C15.474 11.1614 15.9479 10.6771 16.4635 10.2344C16.9792 9.79166 17.5312 9.39582 18.1146 9.04687C18.7031 8.69791 19.3125 8.40624 19.9479 8.16145C20.5833 7.92186 21.2344 7.73436 21.901 7.60416Z" fill="#1F48FF"/>
</g>
</svg>
