<svg width="67" height="38" viewBox="0 0 67 38" fill="none" xmlns="http://www.w3.org/2000/svg">
<mask id="mask0_2021_48" style="mask-type:luminance" maskUnits="userSpaceOnUse" x="0" y="0" width="67" height="38">
<path d="M0 0H66.0156V37.4427H0V0Z" fill="white"/>
</mask>
<g mask="url(#mask0_2021_48)">
<path fill-rule="evenodd" clip-rule="evenodd" d="M41.401 18.7396C41.401 16.3802 40.4479 14.2448 38.901 12.6979C37.3542 11.151 35.2188 10.1979 32.8594 10.1979C30.5 10.1979 28.3646 11.151 26.8229 12.6979C25.276 14.2448 24.3177 16.3802 24.3177 18.7396C24.3177 21.099 25.276 23.2344 26.8229 24.776C28.3646 26.3229 30.5 27.2812 32.8594 27.2812C35.2188 27.2812 37.3542 26.3229 38.901 24.776C40.4479 23.2344 41.401 21.099 41.401 18.7396ZM35.8958 14.6615C36.2188 14.974 36.224 15.4896 35.9115 15.8125C35.599 16.1354 35.0781 16.1458 34.7552 15.8281C34.5365 15.6146 34.2396 15.4323 33.9062 15.3073C33.5885 15.1875 33.2448 15.1094 32.9062 15.099H32.8594C32.8385 15.099 32.8125 15.099 32.7917 15.099C32.7031 15.099 32.6198 15.1042 32.5312 15.1146C32.1302 15.1562 31.7604 15.2969 31.5052 15.5677H31.5C31.375 15.6979 31.2708 15.8594 31.1979 16.0521C31.0885 16.3333 31.0938 16.6146 31.2083 16.8594C31.3333 17.1302 31.6042 17.3802 32.0156 17.5938C32.4219 17.7917 32.9531 17.9323 33.474 18.0677C33.9531 18.1927 34.4219 18.3177 34.8385 18.4844L34.8802 18.5052C36.0573 19 36.5833 19.8594 36.6146 20.776C36.6302 21.349 36.4479 21.9219 36.099 22.4219C35.7708 22.8958 35.2969 23.3125 34.7135 23.599C34.401 23.75 34.0521 23.8698 33.6771 23.9375V25.3906C33.6771 25.8385 33.3125 26.2083 32.8594 26.2083C32.4115 26.2083 32.0417 25.8385 32.0417 25.3906V23.9375C31.224 23.7865 30.3385 23.4115 29.4323 22.7344C29.0729 22.4635 29 21.9531 29.2708 21.5938C29.5417 21.2344 30.0521 21.1615 30.4115 21.4323C31.3073 22.1042 32.1458 22.3698 32.8542 22.375H32.8802C33.3021 22.375 33.6823 22.2813 33.9948 22.1302C34.3281 21.9688 34.5885 21.7448 34.7604 21.4948C34.9115 21.276 34.9896 21.0417 34.9844 20.8281C34.974 20.526 34.7552 20.224 34.2604 20.0104L34.224 20C33.8802 19.8594 33.474 19.7552 33.0677 19.6458C32.4531 19.4896 31.8333 19.3229 31.2812 19.0469C30.526 18.6667 30.0104 18.1458 29.7344 17.5573C29.4219 16.901 29.4063 16.1771 29.6771 15.4688C29.8385 15.0573 30.0625 14.7135 30.3281 14.4323H30.3333C30.8021 13.9479 31.401 13.6615 32.0417 13.5365V12.0885C32.0417 11.6354 32.4115 11.2708 32.8594 11.2708C33.3125 11.2708 33.6771 11.6354 33.6771 12.0885V13.5521C33.9583 13.6094 34.2292 13.6875 34.4896 13.7865C35.026 13.9948 35.5156 14.2917 35.8958 14.6615ZM55.7083 32.4167C55.4375 32.6615 55.0833 32.8073 54.6979 32.8073H11.026C10.6406 32.8073 10.2813 32.6615 10.0104 32.4219C9.74479 32.1771 9.55729 31.8438 9.51563 31.4583C9.39583 30.4479 8.94271 29.5417 8.27083 28.8542L8.22917 28.8125C7.53125 28.1198 6.60937 27.651 5.58854 27.5312C5.20312 27.4844 4.86458 27.3021 4.625 27.0312C4.38542 26.7604 4.23958 26.4063 4.23958 26.0208V11.4583C4.23958 11.0729 4.38542 10.7187 4.625 10.4479C4.86458 10.1771 5.19792 9.98958 5.58333 9.94792H5.58854C6.61458 9.82812 7.53646 9.35938 8.23438 8.66146C8.92708 7.96875 9.39063 7.04688 9.51563 6.02083C9.55729 5.63542 9.74479 5.29687 10.0104 5.05729C10.2813 4.81771 10.6406 4.67188 11.026 4.67188H54.6979C55.0833 4.67188 55.4375 4.81771 55.7083 5.05729C55.9792 5.29687 56.1615 5.63542 56.2083 6.02083C56.3281 7.04688 56.7969 7.96875 57.4948 8.66146L57.4896 8.66667C58.1823 9.35417 59.0938 9.81771 60.1146 9.94271L60.1406 9.94792C60.5208 9.98958 60.8594 10.1771 61.099 10.4479C61.3385 10.7187 61.4844 11.0729 61.4844 11.4583V26.0208C61.4844 26.4063 61.3385 26.7604 61.099 27.0312C60.8594 27.3021 60.5208 27.4844 60.1354 27.5312C59.1094 27.651 58.1875 28.1198 57.4948 28.8125H57.4896C56.7969 29.5052 56.3281 30.4271 56.2083 31.4583C56.1615 31.8438 55.9792 32.1771 55.7083 32.4167ZM54.599 31.1667H11.125C10.9427 29.8333 10.3333 28.6302 9.43229 27.7083C9.41667 27.6927 9.40104 27.6719 9.38542 27.6562C8.45833 26.7344 7.23958 26.1042 5.875 25.9219V11.5573C7.23438 11.375 8.45833 10.7448 9.38021 9.81771C10.3073 8.89063 10.9375 7.67187 11.125 6.30729H54.599C54.7813 7.67187 55.4115 8.89583 56.3385 9.81771C57.2656 10.7448 58.4844 11.375 59.849 11.5573V25.9219C58.4844 26.1042 57.2604 26.7344 56.3385 27.6562V27.6615C55.4115 28.5885 54.7813 29.8073 54.599 31.1667ZM62.8542 35.8125H2.86979C2.53125 35.8125 2.21875 35.6719 1.99479 35.4479C1.77083 35.224 1.63542 34.9167 1.63542 34.5781V2.90104C1.63542 2.5625 1.77083 2.25 1.99479 2.02604C2.21875 1.80729 2.53125 1.66667 2.86979 1.66667H62.8542C63.1927 1.66667 63.5 1.80729 63.724 2.02604H63.7292C63.9479 2.25 64.0885 2.55729 64.0885 2.90104V34.5781C64.0885 34.9167 63.9479 35.224 63.724 35.4479H63.7292C63.5052 35.6719 63.1927 35.8125 62.8542 35.8125ZM64.8802 36.6042C64.3594 37.125 63.6406 37.4479 62.8542 37.4479H2.86979C2.07813 37.4479 1.35937 37.125 0.838541 36.6042C0.322917 36.0833 0 35.3698 0 34.5781V2.90104C0 2.10938 0.322917 1.39063 0.838541 0.875C1.35937 0.354167 2.07813 0.03125 2.86979 0.03125H62.8542C63.6458 0.03125 64.3646 0.354167 64.8802 0.875C65.401 1.39583 65.724 2.11458 65.724 2.90104V34.5781C65.724 35.3698 65.401 36.0833 64.8802 36.6042ZM40.0573 11.5417C41.901 13.3854 43.0365 15.9271 43.0365 18.7396C43.0365 21.5469 41.901 24.0938 40.0573 25.9323C38.2135 27.776 35.6719 28.9167 32.8594 28.9167C30.0521 28.9167 27.5052 27.776 25.6667 25.9323C23.8229 24.0938 22.6823 21.5469 22.6823 18.7396C22.6823 15.9271 23.8229 13.3854 25.6667 11.5417C27.5052 9.69792 30.0521 8.5625 32.8594 8.5625C35.6719 8.5625 38.2135 9.69792 40.0573 11.5417Z" fill="#006837"/>
</g>
</svg>
