<svg width="57" height="93" viewBox="0 0 57 93" fill="none" xmlns="http://www.w3.org/2000/svg">
<mask id="mask0_2016_151" style="mask-type:luminance" maskUnits="userSpaceOnUse" x="0" y="0" width="57" height="93">
<path d="M0 0H56.4588V92.052H0V0Z" fill="white"/>
</mask>
<g mask="url(#mask0_2016_151)">
<g filter="url(#filter0_d_2016_151)">
<mask id="mask1_2016_151" style="mask-type:luminance" maskUnits="userSpaceOnUse" x="-6" y="-10" width="70" height="114">
<path d="M63.91 -9.69891H-5.81V103.101H63.91V-9.69891Z" fill="black" fill-opacity="0.55"/>
</mask>
<g mask="url(#mask1_2016_151)">
<mask id="mask2_2016_151" style="mask-type:luminance" maskUnits="userSpaceOnUse" x="0" y="-1" width="57" height="94">
<path d="M56.4588 -0.29892H0V92.052H56.4588V-0.29892Z" fill="white"/>
</mask>
<g mask="url(#mask2_2016_151)">
<mask id="mask3_2016_151" style="mask-type:luminance" maskUnits="userSpaceOnUse" x="0" y="0" width="57" height="92">
<path d="M0 -3.05176e-05H56.3049V91.5366H0V-3.05176e-05Z" fill="white"/>
</mask>
<g mask="url(#mask3_2016_151)">
<mask id="mask4_2016_151" style="mask-type:luminance" maskUnits="userSpaceOnUse" x="0" y="0" width="57" height="92">
<path d="M13.7967 -3.05176e-05H42.5031C46.1651 -3.05176e-05 49.6732 1.45841 52.2633 4.06094C54.8483 6.6583 56.3049 10.1833 56.3049 13.8629V77.6273C56.3049 81.3017 54.8483 84.8319 52.2633 87.4293C49.6732 90.0318 46.1651 91.4902 42.5031 91.4902H13.7967C10.1398 91.4902 6.63165 90.0318 4.04156 87.4293C1.45147 84.8319 0 81.3017 0 77.6273V13.8629C0 10.1833 1.45147 6.6583 4.04156 4.06094C6.63165 1.45841 10.1398 -3.05176e-05 13.7967 -3.05176e-05Z" fill="white"/>
</mask>
<g mask="url(#mask4_2016_151)">
<mask id="mask5_2016_151" style="mask-type:luminance" maskUnits="userSpaceOnUse" x="0" y="-1" width="57" height="94">
<path d="M56.4588 -0.29892H0V92.052H56.4588V-0.29892Z" fill="white"/>
</mask>
<g mask="url(#mask5_2016_151)">
<mask id="mask6_2016_151" style="mask-type:luminance" maskUnits="userSpaceOnUse" x="0" y="0" width="57" height="92">
<path d="M0 -3.05176e-05H56.3049V91.5366H0V-3.05176e-05Z" fill="white"/>
</mask>
<g mask="url(#mask6_2016_151)">
<mask id="mask7_2016_151" style="mask-type:luminance" maskUnits="userSpaceOnUse" x="0" y="0" width="57" height="92">
<path d="M13.7967 -3.05176e-05H42.5031C46.1651 -3.05176e-05 49.6732 1.45841 52.2633 4.06094C54.8483 6.6583 56.3049 10.1833 56.3049 13.8629V77.6273C56.3049 81.3017 54.8483 84.8319 52.2633 87.4293C49.6732 90.0318 46.1651 91.4902 42.5031 91.4902H13.7967C10.1398 91.4902 6.63165 90.0318 4.04156 87.4293C1.45147 84.8319 0 81.3017 0 77.6273V13.8629C0 10.1833 1.45147 6.6583 4.04156 4.06094C6.63165 1.45841 10.1398 -3.05176e-05 13.7967 -3.05176e-05Z" fill="white"/>
</mask>
<g mask="url(#mask7_2016_151)">
<path d="M0 -3.05176e-05H56.3049V91.4902H0V-3.05176e-05Z" fill="#FF914D"/>
</g>
</g>
</g>
</g>
</g>
</g>
</g>
</g>
</g>
<defs>
<filter id="filter0_d_2016_151" x="-4" y="-3.05176e-05" width="64.3049" height="99.4903" filterUnits="userSpaceOnUse" color-interpolation-filters="sRGB">
<feFlood flood-opacity="0" result="BackgroundImageFix"/>
<feColorMatrix in="SourceAlpha" type="matrix" values="0 0 0 0 0 0 0 0 0 0 0 0 0 0 0 0 0 0 127 0" result="hardAlpha"/>
<feOffset dy="4"/>
<feGaussianBlur stdDeviation="2"/>
<feComposite in2="hardAlpha" operator="out"/>
<feColorMatrix type="matrix" values="0 0 0 0 0 0 0 0 0 0 0 0 0 0 0 0 0 0 0.25 0"/>
<feBlend mode="normal" in2="BackgroundImageFix" result="effect1_dropShadow_2016_151"/>
<feBlend mode="normal" in="SourceGraphic" in2="effect1_dropShadow_2016_151" result="shape"/>
</filter>
</defs>
</svg>
