<svg width="60" height="94" viewBox="0 0 60 94" fill="none" xmlns="http://www.w3.org/2000/svg">
<mask id="mask0_2019_43" style="mask-type:luminance" maskUnits="userSpaceOnUse" x="0" y="0" width="60" height="94">
<path d="M0 0H59.375V93.3333H0V0Z" fill="white"/>
</mask>
<g mask="url(#mask0_2019_43)">
<mask id="mask1_2019_43" style="mask-type:luminance" maskUnits="userSpaceOnUse" x="-7" y="-10" width="73" height="115">
<path d="M65.6875 -9.5H-6.3125V104.5H65.6875V-9.5Z" fill="black" fill-opacity="0.55"/>
</mask>
<g mask="url(#mask1_2019_43)">
<mask id="mask2_2019_43" style="mask-type:luminance" maskUnits="userSpaceOnUse" x="-1" y="0" width="61" height="94">
<path d="M59.6875 0H-0.3125V93.3333H59.6875V0Z" fill="white"/>
</mask>
<g mask="url(#mask2_2019_43)">
<mask id="mask3_2019_43" style="mask-type:luminance" maskUnits="userSpaceOnUse" x="0" y="0" width="59" height="94">
<path d="M0.755249 0H58.2917V93.099H0.755249V0Z" fill="white"/>
</mask>
<g mask="url(#mask3_2019_43)">
<mask id="mask4_2019_43" style="mask-type:luminance" maskUnits="userSpaceOnUse" x="0" y="0" width="59" height="94">
<path d="M14.8542 0H44.1927C47.9323 0 51.5157 1.48437 54.1615 4.13021C56.8073 6.77604 58.2917 10.3594 58.2917 14.099V78.9531C58.2917 82.6927 56.8073 86.2812 54.1615 88.9219C51.5157 91.5677 47.9323 93.0521 44.1927 93.0521H14.8542C11.1146 93.0521 7.52608 91.5677 4.88546 88.9219C2.23962 86.2812 0.755249 82.6927 0.755249 78.9531V14.099C0.755249 10.3594 2.23962 6.77604 4.88546 4.13021C7.52608 1.48437 11.1146 0 14.8542 0Z" fill="white"/>
</mask>
<g mask="url(#mask4_2019_43)">
<mask id="mask5_2019_43" style="mask-type:luminance" maskUnits="userSpaceOnUse" x="-1" y="0" width="60" height="94">
<path d="M58.3542 0H-0.3125V93.3333H58.3542V0Z" fill="white"/>
</mask>
<g mask="url(#mask5_2019_43)">
<mask id="mask6_2019_43" style="mask-type:luminance" maskUnits="userSpaceOnUse" x="0" y="0" width="59" height="94">
<path d="M0.755249 0H58.2917V93.099H0.755249V0Z" fill="white"/>
</mask>
<g mask="url(#mask6_2019_43)">
<mask id="mask7_2019_43" style="mask-type:luminance" maskUnits="userSpaceOnUse" x="0" y="0" width="59" height="94">
<path d="M14.8542 0H44.1927C47.9323 0 51.5157 1.48437 54.1615 4.13021C56.8073 6.77604 58.2917 10.3594 58.2917 14.099V78.9531C58.2917 82.6927 56.8073 86.2812 54.1615 88.9219C51.5157 91.5677 47.9323 93.0521 44.1927 93.0521H14.8542C11.1146 93.0521 7.52608 91.5677 4.88546 88.9219C2.23962 86.2812 0.755249 82.6927 0.755249 78.9531V14.099C0.755249 10.3594 2.23962 6.77604 4.88546 4.13021C7.52608 1.48437 11.1146 0 14.8542 0Z" fill="white"/>
</mask>
<g mask="url(#mask7_2019_43)">
<path d="M0.755249 0H58.2917V93.0521H0.755249V0Z" fill="#8E99A2"/>
</g>
</g>
</g>
</g>
</g>
</g>
</g>
</g>
</svg>
