<svg width="23" height="22" viewBox="0 0 23 22" fill="none" xmlns="http://www.w3.org/2000/svg">
<mask id="mask0_2021_110" style="mask-type:luminance" maskUnits="userSpaceOnUse" x="0" y="0" width="23" height="22">
<path d="M0 0H22.1979V21.3333H0V0Z" fill="white"/>
</mask>
<g mask="url(#mask0_2021_110)">
<path d="M11.9531 0.619781H5.33333C5.13541 0.619781 4.93749 0.62499 4.73958 0.635406C4.67708 2.01562 4.32291 3.30728 3.67708 4.52603C3.03125 5.74478 2.15625 6.76562 1.05208 7.58853C1.72395 7.71353 2.3802 7.90103 3.02083 8.14061C3.66145 8.3802 4.27604 8.67186 4.86458 9.02082C5.45312 9.36457 6.0052 9.76041 6.52604 10.2031C7.04687 10.6458 7.52604 11.1302 7.96354 11.6562C8.40104 12.1823 8.78645 12.7448 9.1302 13.3385C9.46875 13.9323 9.7552 14.5469 9.98437 15.1927C10.2187 15.8333 10.3958 16.4896 10.5156 17.1667C10.6302 17.8385 10.6927 18.5156 10.6927 19.1979V21.3281C16.6875 20.9167 22.3802 18.8958 22.3802 18.8958V11.0364C22.3802 10.3542 22.3125 9.67707 22.1771 9.0052C22.0417 8.33332 21.849 7.68228 21.5833 7.05207C21.3229 6.41666 21 5.8177 20.6198 5.24999C20.2396 4.67707 19.8073 4.15103 19.3229 3.66666C18.8385 3.18749 18.3125 2.7552 17.7448 2.37499C17.1771 1.99478 16.5729 1.67186 15.9427 1.41145C15.3125 1.15103 14.6562 0.953115 13.9896 0.817698C13.3177 0.68749 12.6406 0.619781 11.9531 0.619781Z" fill="#1F48FF"/>
</g>
</svg>
