<svg width="48" height="48" viewBox="0 0 48 48" fill="none" xmlns="http://www.w3.org/2000/svg">
<mask id="mask0_2016_54" style="mask-type:luminance" maskUnits="userSpaceOnUse" x="0" y="0" width="48" height="48">
<path d="M0 0H47.2031V47.1979H0V0Z" fill="white"/>
</mask>
<g mask="url(#mask0_2016_54)">
<path d="M43.4271 5.5H39.0052V3.08854C39.0052 2.68229 38.9271 2.28646 38.7656 1.90625C38.6094 1.53125 38.3854 1.19271 38.099 0.90625C37.8073 0.614583 37.474 0.390626 37.0938 0.234375C36.7188 0.0781243 36.3229 0 35.9115 0H34.2969C33.8854 0 33.4948 0.0781247 33.1146 0.239583C32.7396 0.395834 32.4062 0.619791 32.1198 0.90625C31.8281 1.19792 31.6094 1.53125 31.4479 1.91146C31.2917 2.28646 31.2135 2.68229 31.2135 3.08854V5.5H16.1146V3.08854C16.1146 2.68229 16.0313 2.28646 15.875 1.91146C15.7188 1.53125 15.5 1.19792 15.2083 0.90625C14.9219 0.619791 14.5885 0.395834 14.2135 0.239583C13.8333 0.0781247 13.4427 0 13.0313 0H11.4167C11.0052 0 10.6094 0.0781243 10.2344 0.234375C9.85417 0.390626 9.52083 0.614583 9.22917 0.90625C8.94271 1.19271 8.71875 1.53125 8.5625 1.90625C8.40104 2.28646 8.32292 2.68229 8.32292 3.08854V5.5H3.90104C3.38021 5.5 2.88542 5.59896 2.40625 5.79688C1.93229 5.99479 1.51042 6.27604 1.14583 6.64062C0.781251 7.00521 0.5 7.42708 0.302083 7.90625C0.104167 8.38542 0.005208 8.88021 0 9.39583V43.4219C0.005208 43.9427 0.104167 44.4375 0.302083 44.9167C0.5 45.3906 0.781251 45.8125 1.14583 46.1771C1.51042 46.5417 1.93229 46.8229 2.40625 47.0208C2.88542 47.2188 3.38021 47.3177 3.90104 47.3229H43.4167C43.9375 47.3229 44.4323 47.224 44.9115 47.026C45.3906 46.8281 45.8125 46.5469 46.1823 46.1823C46.5469 45.8177 46.8281 45.3958 47.026 44.9167C47.224 44.4375 47.3229 43.9427 47.3229 43.4219V9.39583C47.3229 8.88021 47.224 8.38542 47.026 7.90625C46.8281 7.42708 46.5469 7.00521 46.1823 6.64062C45.8177 6.27604 45.3958 5.99479 44.9219 5.79688C44.4427 5.59896 43.9479 5.5 43.4271 5.5ZM33.2292 3.08854C33.2292 2.79688 33.3333 2.54167 33.5417 2.33333C33.75 2.11979 34 2.01563 34.2969 2.01042H35.9115C36.2083 2.01042 36.4635 2.11979 36.6771 2.32812C36.8854 2.54167 36.9896 2.79167 36.9896 3.08854V9.32812H33.2292V3.08854ZM10.349 3.08854C10.349 2.79688 10.4531 2.54167 10.6615 2.33333C10.8698 2.11979 11.1198 2.01563 11.4167 2.01042H13.0313C13.3281 2.01563 13.5781 2.11979 13.7865 2.33333C13.9948 2.54167 14.099 2.79688 14.099 3.08854V9.32812H10.3229L10.349 3.08854ZM3.90104 7.51562H8.32292V11.3438H16.1146V7.51562H31.2135V11.3438H39.0208V7.51562H43.4427C43.6927 7.51562 43.9323 7.56771 44.1615 7.66146C44.3906 7.76042 44.5885 7.89583 44.7656 8.07292C44.9375 8.25 45.0729 8.44792 45.1667 8.68229C45.2656 8.91146 45.3125 9.14583 45.3125 9.39583V17.2448H2.01563V9.39583C2.01563 9.14583 2.0625 8.90625 2.16146 8.67708C2.25521 8.44792 2.39062 8.24479 2.56771 8.06771C2.74479 7.89063 2.94792 7.75521 3.17708 7.65625C3.41146 7.5625 3.65104 7.51562 3.90104 7.51562ZM43.4271 45.3073H3.91146C3.65625 45.3073 3.41667 45.2604 3.1875 45.1667C2.95313 45.0729 2.75 44.9323 2.57292 44.7604C2.39583 44.5833 2.25521 44.375 2.16146 44.1458C2.0625 43.9167 2.01563 43.6719 2.01563 43.4219V19.2604H45.3125V43.4219C45.3125 43.6719 45.2656 43.9115 45.1667 44.1458C45.0729 44.375 44.9375 44.5781 44.7604 44.7552C44.5833 44.9323 44.3802 45.0677 44.151 45.1615C43.9167 45.2604 43.6771 45.3073 43.4271 45.3073Z" fill="#5E17EB"/>
</g>
</svg>
