<svg width="60" height="40" viewBox="0 0 60 40" fill="none" xmlns="http://www.w3.org/2000/svg">
<mask id="mask0_2019_48" style="mask-type:luminance" maskUnits="userSpaceOnUse" x="0" y="0" width="60" height="40">
<path d="M0 0H59.375V39.5833H0V0Z" fill="white"/>
</mask>
<g mask="url(#mask0_2019_48)">
<path fill-rule="evenodd" clip-rule="evenodd" d="M30.1407 0.0937617L58.6407 11.9479C59.2448 12.1979 59.5313 12.8854 59.2813 13.4896C59.1563 13.7865 58.9219 14.0104 58.6407 14.125L47.6042 18.7136V29.6875H47.599C47.599 30.1094 47.3646 30.5208 46.9636 30.7292L30.2396 39.4375C29.9063 39.6094 29.5 39.625 29.1407 39.4375L12.5105 30.7813C12.0782 30.6042 11.7709 30.1823 11.7709 29.6875V18.7136L6.52607 16.5365L6.51566 25.4427C7.30212 25.6511 8.00524 26.0625 8.56774 26.6198C9.39066 27.4427 9.90107 28.5781 9.90107 29.8333V35.5469C9.90107 36.1979 9.36982 36.724 8.71357 36.724H1.94795C1.2917 36.724 0.760449 36.1979 0.760449 35.5469V29.8333C0.760449 28.5781 1.27087 27.4427 2.09899 26.6198C2.65628 26.0625 3.35941 25.6511 4.15107 25.4427L4.16149 15.5521L0.734406 14.125C0.13024 13.875 -0.156218 13.1875 0.0937825 12.5833C0.218782 12.2813 0.453157 12.0625 0.734406 11.9479L29.2344 0.0937617C29.5365 -0.0312383 29.8594 -0.020821 30.1407 0.0937617ZM29.6875 9.09897C30.8125 9.09897 31.8542 9.27605 32.6302 9.56772C33.7761 10 34.4896 10.7396 34.4896 11.6875C34.4896 12.6302 33.7761 13.3698 32.6302 13.8021C31.8542 14.0938 30.8073 14.2761 29.6875 14.2761C28.5625 14.2761 27.5209 14.0938 26.7448 13.8021C26.3594 13.6563 26.0261 13.4792 25.75 13.2708L10.0104 15.4271L29.6875 23.6094L55.1146 13.0365L29.6875 2.46355L4.26045 13.0365L5.70837 13.6406L25.0261 10.9896C25.2865 10.375 25.8959 9.88543 26.7448 9.56772C27.5209 9.27605 28.5625 9.09897 29.6875 9.09897ZM31.9479 11.6875C31.9479 11.6042 31.9323 11.625 31.9115 11.6875C31.9323 11.7448 31.9479 11.7708 31.9479 11.6875ZM45.2292 19.7031L30.1407 25.9792C29.8386 26.1042 29.5157 26.0938 29.2344 25.9792L14.1459 19.7031V28.9792L29.6875 37.0677L45.2292 28.9792V19.7031ZM3.77607 28.2917C3.38024 28.6823 3.13545 29.2292 3.13545 29.8333V34.3646H7.52607V29.8333C7.52607 29.2292 7.28128 28.6823 6.88545 28.2917C6.48961 27.8958 5.94274 27.6511 5.33337 27.6511C4.72399 27.6511 4.17191 27.8958 3.77607 28.2917Z" fill="#333333"/>
</g>
</svg>
