<svg width="27" height="27" viewBox="0 0 27 27" fill="none" xmlns="http://www.w3.org/2000/svg">
<mask id="mask0_2031_1209" style="mask-type:luminance" maskUnits="userSpaceOnUse" x="0" y="0" width="27" height="27">
<path d="M0 0H26.7292V26.7344H0V0Z" fill="white"/>
</mask>
<g mask="url(#mask0_2031_1209)">
<path fill-rule="evenodd" clip-rule="evenodd" d="M2.3594 18.9271L16.9219 4.36979L20.1719 1.11979C20.9167 0.375 21.9011 0 22.8854 0C23.8646 0 24.849 0.375 25.5938 1.11979H25.599C26.3438 1.86979 26.7136 2.84896 26.7136 3.83333C26.7136 4.81771 26.3438 5.79688 25.5938 6.54688L24.5157 7.63021L22.349 9.79167L7.78649 24.3542C7.69274 24.4479 7.57815 24.5104 7.45836 24.5417L0.937529 26.6823C0.557321 26.8073 0.156278 26.599 0.0312787 26.224C-0.0155963 26.0729 -0.010388 25.9167 0.0312787 25.7812C0.750029 23.5885 1.46878 21.401 2.18753 19.2135C2.22399 19.1042 2.28649 19.0052 2.36461 18.9323L2.3594 18.9271ZM18.4479 4.875L21.8386 8.27083L22.9896 7.11979L19.5938 3.72396L18.4479 4.875ZM17.4323 5.89062L3.49482 19.8281L1.83857 24.8802L6.89065 23.2188L20.8229 9.28646L17.4323 5.89062ZM21.1875 2.13542L20.6094 2.70833L24.0052 6.10417L24.5782 5.53125C25.0469 5.0625 25.2813 4.44792 25.2813 3.83333C25.2813 3.21875 25.0469 2.60417 24.5782 2.13542C24.1146 1.67187 23.5 1.4375 22.8854 1.4375C22.2657 1.4375 21.6511 1.67187 21.1875 2.13542Z" fill="#1F48FF"/>
</g>
</svg>
