<svg width="27" height="33" viewBox="0 0 27 33" fill="none" xmlns="http://www.w3.org/2000/svg">
<mask id="mask0_2031_1214" style="mask-type:luminance" maskUnits="userSpaceOnUse" x="0" y="0" width="27" height="33">
<path d="M0 0H26.7292V32.6719H0V0Z" fill="white"/>
</mask>
<g mask="url(#mask0_2031_1214)">
<path d="M17.6354 2.57291C21.8281 2.5677 23.9531 2.56249 24.0156 2.55728C25.0312 2.52082 25.8021 2.59374 26.4219 3.4427C26.8281 3.99478 26.6875 5.05728 26.6979 5.5052C26.7083 6.41666 26.0781 7.03645 25.2187 7.09895C25.1562 7.10416 25.0989 7.15624 25.0937 7.21874C24.2344 15.2083 23.5052 22.3646 22.9062 28.6823C22.7969 29.8333 22.6406 30.5677 22.4323 30.8906C22.0521 31.4844 21.5521 31.9271 20.9271 32.2187C20.5625 32.3906 19.9167 32.4739 18.9948 32.4687C14.5625 32.4375 11.0156 32.4375 8.35936 32.4687C7.06769 32.4792 6.23957 32.3906 5.87499 32.2083C5.19269 31.8646 4.68749 31.3646 4.35415 30.7083C4.19269 30.3958 4.05728 29.6927 3.95311 28.5989C3.08853 19.7656 2.36978 12.6614 1.79165 7.28645C1.78645 7.21353 1.72915 7.16145 1.65624 7.15624C0.104154 7.07291 -0.0781391 5.82811 0.0208196 4.46874C0.114569 3.22395 0.80207 2.59374 2.08332 2.58853C2.55728 2.58332 4.90103 2.57811 9.11457 2.56249C9.17186 2.56249 9.21874 2.51561 9.21353 2.45832C9.20311 1.40103 9.59374 0.661448 10.3854 0.234364C10.6927 0.0676975 11.2135 -0.0104275 11.9479 -1.0801e-05C13.1979 0.0208225 14.1562 0.0208225 14.8229 -1.0801e-05C16.5364 -0.0416775 17.4323 0.776031 17.5156 2.45832C17.5208 2.52082 17.5729 2.57291 17.6354 2.57291ZM10.3854 2.55728L16.3437 2.57291C16.3802 2.57291 16.4062 2.54166 16.4062 2.51041V2.23957C16.4062 1.61457 15.9427 1.10936 15.3594 1.10936L11.375 1.09895C10.7969 1.09895 10.3281 1.60416 10.3281 2.22395L10.3229 2.49999C10.3229 2.53124 10.3542 2.55728 10.3854 2.55728ZM1.64582 6.07811H25.0677C25.3906 6.07811 25.651 5.8177 25.651 5.49999V4.71874C25.651 4.11457 25.125 3.62499 24.4739 3.62499H2.23957C1.59374 3.62499 1.06769 4.11457 1.06769 4.71874V5.49999C1.06769 5.8177 1.32811 6.07811 1.64582 6.07811ZM13.4323 31.3698C15.6042 31.3698 17.5989 31.3698 19.4219 31.3646C20.2969 31.3646 20.9323 31.0781 21.3177 30.5052C21.5364 30.1719 21.7031 29.4792 21.8021 28.4167C22.3646 22.5469 23.0781 15.5052 23.9427 7.28124C23.9479 7.22395 23.9062 7.17186 23.8437 7.17186C19.0833 7.16666 15.6146 7.16145 13.4375 7.16145C11.2604 7.16145 7.79165 7.16145 3.03124 7.16666C2.97395 7.16666 2.92707 7.21874 2.93228 7.27603C3.79686 15.5 4.50519 22.5469 5.06769 28.4114C5.16665 29.4739 5.33332 30.1719 5.55207 30.5C5.93749 31.0729 6.56769 31.3646 7.4479 31.3646C9.26561 31.3646 11.2604 31.3698 13.4323 31.3698Z" fill="#FF2828"/>
<path d="M13.9532 27.4688C13.9532 27.7604 13.7136 27.9948 13.422 27.9948H13.3803C13.0886 27.9948 12.8542 27.7604 12.8542 27.4688V10.7865C12.8542 10.4948 13.0886 10.2604 13.3803 10.2604H13.422C13.7136 10.2604 13.9532 10.4948 13.9532 10.7865V27.4688Z" fill="#FF2828"/>
<path d="M9.52597 27.3906C9.55201 27.6979 9.32805 27.9635 9.02076 27.9896L9.01034 27.9948C8.70305 28.0208 8.43743 27.7917 8.40617 27.4896L6.93742 10.9948C6.90617 10.6875 7.13534 10.4167 7.43742 10.3906H7.44784C7.75513 10.3646 8.02597 10.5885 8.05201 10.8906L9.52597 27.3906Z" fill="#FF2828"/>
<path d="M18.4479 27.5261C18.4219 27.8281 18.1511 28.0521 17.849 28.0261H17.8386C17.5313 28 17.3073 27.7292 17.3334 27.4271L18.7865 10.8386C18.8125 10.5313 19.0834 10.3073 19.3854 10.3334H19.3959C19.7031 10.3646 19.9271 10.6302 19.9011 10.9375L18.4479 27.5261Z" fill="#FF2828"/>
</g>
</svg>
