<svg width="16" height="16" viewBox="0 0 16 16" fill="none" xmlns="http://www.w3.org/2000/svg">
<path d="M0.0364571 8.57263C0.125 9.51013 0.375001 10.406 0.78125 11.2497C1.19271 12.0987 1.73958 12.8487 2.41667 13.4997C3.09896 14.1508 3.86979 14.6664 4.73438 15.0362C5.59896 15.406 6.50521 15.6195 7.44271 15.6664C7.52083 15.6716 7.59896 15.6716 7.67188 15.6716H7.83854C8.32812 15.6716 8.8125 15.6299 9.29167 15.5362C9.77083 15.4476 10.2396 15.3122 10.6979 15.1351C11.151 14.9581 11.5885 14.7393 12 14.4789C12.4167 14.2185 12.8021 13.9216 13.1615 13.5883C13.5208 13.2601 13.8438 12.8955 14.1354 12.5049C14.4271 12.1091 14.6823 11.6924 14.8906 11.2549C15.1042 10.8122 15.276 10.3539 15.401 9.88513C15.5312 9.41117 15.6146 8.93201 15.651 8.44242C15.6667 8.24451 15.6771 8.04138 15.6771 7.83826C15.6771 6.84347 15.4948 5.88513 15.1354 4.96326C14.7812 4.06742 14.276 3.26013 13.6198 2.54659C13.0885 1.96326 12.4792 1.47367 11.8021 1.07263C11.1198 0.6768 10.3906 0.385133 9.625 0.20805C8.85417 0.0257579 8.07812 -0.0367408 7.28646 0.0205499C6.5 0.0778419 5.73958 0.244508 5 0.530967C4.26563 0.817425 3.58854 1.20805 2.96875 1.69763C2.34896 2.18722 1.81771 2.76013 1.36979 3.41117C0.927084 4.06222 0.583333 4.76534 0.354167 5.52055C0.119791 6.27576 0 7.04659 0 7.83826C0 8.08305 0.0104157 8.32784 0.0364571 8.57263Z" fill="#1F48FF"/>
</svg>
