<svg width="56" height="48" viewBox="0 0 56 48" fill="none" xmlns="http://www.w3.org/2000/svg">
<path d="M55.3561 16.5454L50.0453 7.06278C49.8734 6.75493 49.602 6.51774 49.2673 6.41681L28.5398 0.11355C28.0422 -0.03785 27.5174 -0.03785 27.0244 0.11355L6.29235 6.41681C5.9576 6.51774 5.68618 6.75493 5.51428 7.06278L0.203484 16.5454C-0.0136523 16.934 -0.0588896 17.4084 0.0768212 17.8374C0.217055 18.2663 0.520141 18.5994 0.909178 18.7407L5.31071 20.3859V37.9735C5.31071 39.4269 6.18831 40.7037 7.44137 41.0771L27.0108 47.0322C27.2641 47.1129 27.5265 47.1533 27.7843 47.1533C28.0422 47.1533 28.2955 47.1129 28.5353 47.0372L48.1137 41.0771C49.3668 40.7037 50.2444 39.4269 50.2444 37.9735V20.391L54.6504 18.7407C55.035 18.5994 55.3426 18.2663 55.4783 17.8374C55.6185 17.4084 55.5733 16.934 55.3561 16.5454ZM27.7255 2.98004C27.7617 2.96995 27.7979 2.96995 27.8386 2.98004L43.8479 7.85005L27.8341 12.7201C27.7979 12.7302 27.7572 12.7302 27.721 12.7201L11.7117 7.85005L27.7255 2.98004ZM7.24685 9.576L24.1066 14.7034C25.2013 15.0365 25.6627 16.4849 25.0023 17.5144L21.3291 23.2322L3.35649 16.5202L7.24685 9.576ZM47.5754 37.9735C47.5754 38.0845 47.5166 38.1804 47.4171 38.2106L29.1098 43.7771V39.7701H26.4453V43.7821L8.13801 38.2056C8.04301 38.1804 7.97516 38.0845 7.97516 37.9735V21.3801L21.415 26.4015C21.9669 26.6084 22.5776 26.3864 22.9214 25.8565L25.0973 22.4702C25.518 21.8141 26.4453 22.1472 26.4453 22.9496V34.8748H29.1098V22.9546C29.1098 22.1472 30.0417 21.8141 30.4624 22.4702L32.6382 25.8565C32.8961 26.2552 33.2987 26.4772 33.7239 26.4772C33.8642 26.4772 34.0044 26.452 34.1446 26.4015L47.5754 21.3851V37.9735ZM34.2306 23.2322L30.5573 17.5144C29.8969 16.4849 30.3583 15.0365 31.453 14.7034L48.3083 9.576L52.2031 16.5202L34.2306 23.2322Z" fill="#ED763D"/>
</svg>
